<svg width="742" height="231" viewBox="0 0 742 231" fill="none" xmlns="http://www.w3.org/2000/svg">
<path d="M368 153H360.5V179H375.5L377 177V171.5H371.5L369.5 173.5V177H368V153Z" fill="#FFD230"/>
<path d="M410 153H401V178.692H410V153Z" fill="#FFD230"/>
<path d="M435.5 153L435 179H443.5V164L447 167.5L450.5 164V179H458.5V153H456L446.5 162L437.5 153H435.5Z" fill="#FFD230"/>
<path d="M483.5 153V179H492V153H483.5Z" fill="#FFD230"/>
<path d="M523 155V179H531V155H532.5V159L534 160.5H537.5V153H516V161H520L522 158.5V155H523Z" fill="#FFD230"/>
<path d="M562 153.232V179H578.79V171H573L571.5 173V177H569.5V168H576V163.5H569.5V155H571.5V159L573 160.5H578.79V153.232H562Z" fill="#FFD230"/>
<path d="M603.5 153.232V179H618.5L622.5 174L622 157L618.5 153.232H603.5Z" fill="#FFD230"/>
<path d="M368 153H360.5V179H375.5L377 177V171.5H371.5L369.5 173.5V177H368V153Z" stroke="#FFD230"/>
<path d="M410 153H401V178.692H410V153Z" stroke="#FFD230"/>
<path d="M435.5 153L435 179H443.5V164L447 167.5L450.5 164V179H458.5V153H456L446.5 162L437.5 153H435.5Z" stroke="#FFD230"/>
<path d="M483.5 153V179H492V153H483.5Z" stroke="#FFD230"/>
<path d="M523 155V179H531V155H532.5V159L534 160.5H537.5V153H516V161H520L522 158.5V155H523Z" stroke="#FFD230"/>
<path d="M562 153.232V179H578.79V171H573L571.5 173V177H569.5V168H576V163.5H569.5V155H571.5V159L573 160.5H578.79V153.232H562Z" stroke="#FFD230"/>
<path d="M603.5 153.232V179H618.5L622.5 174L622 157L618.5 153.232H603.5Z" stroke="#FFD230"/>
<g filter="url(#filter0_dd_0_1)">
<path d="M73.75 0.5H248.932C249.64 0.5 250.344 0.607436 251.02 0.81864L253.088 1.46498C256.01 2.3782 258 5.08464 258 8.14633V38C258 41.866 254.866 45 251 45H196C192.134 45 189 48.134 189 52V215C189 218.866 185.866 222 182 222H139.75C137.955 222 136.5 220.545 136.5 218.75C136.5 216.955 137.955 215.5 139.75 215.5H150.447C153.642 215.5 156.096 212.67 155.644 209.508C155.274 206.921 153.059 205 150.447 205H133C129.686 205 127 202.314 127 199C127 195.686 129.686 193 133 193H142.497C145.12 193 147.247 190.873 147.247 188.25C147.247 185.627 145.12 183.5 142.497 183.5H132.049C128.578 183.5 125.898 180.448 126.347 177.006C126.721 174.142 129.161 172 132.049 172H155.5C157.985 172 160 169.985 160 167.5C160 165.015 157.985 163 155.5 163H126C122.962 163 120.5 160.538 120.5 157.5C120.5 154.462 122.962 152 126 152H146C149.314 152 152 149.314 152 146C152 142.686 149.314 140 146 140H121C118.239 140 116 137.761 116 135C116 132.239 118.239 130 121 130H161C163.761 130 166 127.761 166 125C166 122.239 163.761 120 161 120H135.355C132.397 120 130 117.603 130 114.645C130 111.771 132.269 109.409 135.141 109.294L149.859 108.706C152.731 108.591 155 106.229 155 103.355C155 100.397 152.603 98 149.645 98H128.75C125.851 98 123.5 95.6495 123.5 92.75C123.5 89.8505 125.851 87.5 128.75 87.5H162.75C165.926 87.5 168.5 84.9256 168.5 81.75C168.5 78.5744 165.926 76 162.75 76H106C103.239 76 101 73.7614 101 71C101 68.2386 103.239 66 106 66H147C149.761 66 152 63.7614 152 61C152 58.2386 149.761 56 147 56H76C72.6863 56 70 53.3137 70 50C70 46.6863 72.6863 44 76 44H89.2283C92.6005 44 95.2488 41.1114 94.9567 37.7519C94.6983 34.7805 92.2109 32.5 89.2283 32.5H67.75C64.8505 32.5 62.5 30.1495 62.5 27.25C62.5 24.3505 64.8505 22 67.75 22H101C103.761 22 106 19.7614 106 17C106 14.2386 103.761 12 101 12H73.75C70.5744 12 68 9.42564 68 6.25C68 3.07436 70.5744 0.5 73.75 0.5Z" fill="url(#paint0_linear_0_1)"/>
<path d="M52.25 22H32.25C29.3505 22 27 24.3505 27 27.25C27 30.1495 29.3505 32.5 32.25 32.5H52.25C55.1495 32.5 57.5 30.1495 57.5 27.25C57.5 24.3505 55.1495 22 52.25 22Z" fill="url(#paint1_linear_0_1)"/>
<path d="M9.75 22H17.25C20.1495 22 22.5 24.3505 22.5 27.25C22.5 30.1495 20.1495 32.5 17.25 32.5H9.75C6.8505 32.5 4.5 30.1495 4.5 27.25C4.5 24.3505 6.85051 22 9.75 22Z" fill="url(#paint2_linear_0_1)"/>
<path d="M49.5227 53.5H54.5C57.5376 53.5 60 51.0376 60 48C60 44.9624 57.5376 42.5 54.5 42.5H49.5227C46.6781 42.5 44.3028 44.6691 44.0453 47.5021C43.7525 50.7229 46.2885 53.5 49.5227 53.5Z" fill="url(#paint3_linear_0_1)"/>
<path d="M65 64.5H88C90.7614 64.5 93 66.7386 93 69.5C93 72.2614 90.7614 74.5 88 74.5H65C62.2386 74.5 60 72.2614 60 69.5C60 66.7386 62.2386 64.5 65 64.5Z" fill="url(#paint4_linear_0_1)"/>
<path d="M49.1534 108.906L114.155 107.598C116.815 107.544 119 109.685 119 112.346C119 114.931 116.932 117.042 114.347 117.094L49.3446 118.402C46.6849 118.456 44.5 116.315 44.5 113.654C44.5 111.069 46.5684 108.958 49.1534 108.906Z" fill="url(#paint5_linear_0_1)"/>
<path d="M88 130H101.5C103.985 130 106 132.015 106 134.5C106 136.985 103.985 139 101.5 139H88C85.5147 139 83.5 136.985 83.5 134.5C83.5 132.015 85.5147 130 88 130Z" fill="url(#paint6_linear_0_1)"/>
<path d="M112.724 152H102.776C99.9562 152 97.7571 154.443 98.0523 157.247C98.3068 159.665 100.345 161.5 102.776 161.5H112.724C115.544 161.5 117.743 159.057 117.448 156.253C117.193 153.835 115.155 152 112.724 152Z" fill="url(#paint7_linear_0_1)"/>
<path d="M109.23 171H87.27C83.6217 171 80.7489 174.112 81.0399 177.748C81.2997 180.997 84.0115 183.5 87.27 183.5H109.23C112.878 183.5 115.751 180.388 115.46 176.752C115.2 173.503 112.489 171 109.23 171Z" fill="url(#paint8_linear_0_1)"/>
<path d="M106 198V200C106 202.761 108.239 205 111 205C113.761 205 116 202.761 116 200V198C116 195.239 113.761 193 111 193C108.239 193 106 195.239 106 198Z" fill="url(#paint9_linear_0_1)"/>
<path d="M73.75 0.5H248.932C249.64 0.5 250.344 0.607436 251.02 0.81864L253.088 1.46498C256.01 2.3782 258 5.08464 258 8.14633V38C258 41.866 254.866 45 251 45H196C192.134 45 189 48.134 189 52V215C189 218.866 185.866 222 182 222H139.75C137.955 222 136.5 220.545 136.5 218.75C136.5 216.955 137.955 215.5 139.75 215.5H150.447C153.642 215.5 156.096 212.67 155.644 209.508C155.274 206.921 153.059 205 150.447 205H133C129.686 205 127 202.314 127 199C127 195.686 129.686 193 133 193H142.497C145.12 193 147.247 190.873 147.247 188.25C147.247 185.627 145.12 183.5 142.497 183.5H132.049C128.578 183.5 125.898 180.448 126.347 177.006C126.721 174.142 129.161 172 132.049 172H155.5C157.985 172 160 169.985 160 167.5C160 165.015 157.985 163 155.5 163H126C122.962 163 120.5 160.538 120.5 157.5C120.5 154.462 122.962 152 126 152H146C149.314 152 152 149.314 152 146C152 142.686 149.314 140 146 140H121C118.239 140 116 137.761 116 135C116 132.239 118.239 130 121 130H161C163.761 130 166 127.761 166 125C166 122.239 163.761 120 161 120H135.355C132.397 120 130 117.603 130 114.645C130 111.771 132.269 109.409 135.141 109.294L149.859 108.706C152.731 108.591 155 106.229 155 103.355C155 100.397 152.603 98 149.645 98H128.75C125.851 98 123.5 95.6495 123.5 92.75C123.5 89.8505 125.851 87.5 128.75 87.5H162.75C165.926 87.5 168.5 84.9256 168.5 81.75C168.5 78.5744 165.926 76 162.75 76H106C103.239 76 101 73.7614 101 71C101 68.2386 103.239 66 106 66H147C149.761 66 152 63.7614 152 61C152 58.2386 149.761 56 147 56H76C72.6863 56 70 53.3137 70 50C70 46.6863 72.6863 44 76 44H89.2283C92.6005 44 95.2488 41.1114 94.9567 37.7519C94.6983 34.7805 92.2109 32.5 89.2283 32.5H67.75C64.8505 32.5 62.5 30.1495 62.5 27.25C62.5 24.3505 64.8505 22 67.75 22H101C103.761 22 106 19.7614 106 17C106 14.2386 103.761 12 101 12H73.75C70.5744 12 68 9.42564 68 6.25C68 3.07436 70.5744 0.5 73.75 0.5Z" stroke="#0B018E"/>
<path d="M52.25 22H32.25C29.3505 22 27 24.3505 27 27.25C27 30.1495 29.3505 32.5 32.25 32.5H52.25C55.1495 32.5 57.5 30.1495 57.5 27.25C57.5 24.3505 55.1495 22 52.25 22Z" stroke="#0B018E"/>
<path d="M9.75 22H17.25C20.1495 22 22.5 24.3505 22.5 27.25C22.5 30.1495 20.1495 32.5 17.25 32.5H9.75C6.8505 32.5 4.5 30.1495 4.5 27.25C4.5 24.3505 6.85051 22 9.75 22Z" stroke="#0B018E"/>
<path d="M49.5227 53.5H54.5C57.5376 53.5 60 51.0376 60 48C60 44.9624 57.5376 42.5 54.5 42.5H49.5227C46.6781 42.5 44.3028 44.6691 44.0453 47.5021C43.7525 50.7229 46.2885 53.5 49.5227 53.5Z" stroke="#0B018E"/>
<path d="M65 64.5H88C90.7614 64.5 93 66.7386 93 69.5C93 72.2614 90.7614 74.5 88 74.5H65C62.2386 74.5 60 72.2614 60 69.5C60 66.7386 62.2386 64.5 65 64.5Z" stroke="#0B018E"/>
<path d="M49.1534 108.906L114.155 107.598C116.815 107.544 119 109.685 119 112.346C119 114.931 116.932 117.042 114.347 117.094L49.3446 118.402C46.6849 118.456 44.5 116.315 44.5 113.654C44.5 111.069 46.5684 108.958 49.1534 108.906Z" stroke="#0B018E"/>
<path d="M88 130H101.5C103.985 130 106 132.015 106 134.5C106 136.985 103.985 139 101.5 139H88C85.5147 139 83.5 136.985 83.5 134.5C83.5 132.015 85.5147 130 88 130Z" stroke="#0B018E"/>
<path d="M112.724 152H102.776C99.9562 152 97.7571 154.443 98.0523 157.247C98.3068 159.665 100.345 161.5 102.776 161.5H112.724C115.544 161.5 117.743 159.057 117.448 156.253C117.193 153.835 115.155 152 112.724 152Z" stroke="#0B018E"/>
<path d="M109.23 171H87.27C83.6217 171 80.7489 174.112 81.0399 177.748C81.2997 180.997 84.0115 183.5 87.27 183.5H109.23C112.878 183.5 115.751 180.388 115.46 176.752C115.2 173.503 112.489 171 109.23 171Z" stroke="#0B018E"/>
<path d="M106 198V200C106 202.761 108.239 205 111 205C113.761 205 116 202.761 116 200V198C116 195.239 113.761 193 111 193C108.239 193 106 195.239 106 198Z" stroke="#0B018E"/>
</g>
<path d="M261 127.5V95H282V104.5H276L274 101V97H270.5V109H279V113.5H270.5V124H274V119.5L276 118H282V127.5H261Z" fill="url(#paint10_linear_0_1)"/>
<path d="M234.5 127.5V97H232.5V101L230 104.5H228L226 103.5V95H252V103.5L251 104.5H248.5L246 101V97H244L244.5 127.5H244H234.5Z" fill="url(#paint11_linear_0_1)"/>
<path d="M610.5 97.5H608V109.5H617V113.5H608V127H598.5V95.5H619.5V104.5H613L610.5 101.5V97.5Z" fill="url(#paint12_linear_0_1)"/>
<path d="M520 95.5L515.5 100V122L520.5 127H536.5L538 125V118.5H529.5V125H527.5L525.5 122V100L527.5 97.5H529.5V102L532.5 104.5H538V97.5L535 95.5H520Z" fill="url(#paint13_linear_0_1)"/>
<path d="M466 95.5L461 101L461.5 122.5L466.296 127H476.5V125H478L479 127H484V113H472V117.5H475V124H472.5C471.833 123.333 470.5 121.9 470.5 121.5V99.5L472 98H475.5V102L477 104H484V98L480.5 95.5H466Z" fill="url(#paint14_linear_0_1)"/>
<path d="M395.5 95.5V127H414.5L416.5 124V118.5H409.5V120.5H407V125H405.5V95.5H395.5Z" fill="url(#paint15_linear_0_1)"/>
<path d="M426.5 122V100L431.45 95.5H444.45L449.5 100V122L444 127H431L426.5 122Z" fill="url(#paint16_linear_0_1)"/>
<path d="M371 117.5L373 115.5H375V127H385L384.5 97.5L381 95.5H370L362 104.25V127H371V117.5Z" fill="url(#paint17_linear_0_1)"/>
<path d="M630 128V95H648L653 100V109L651 111H646.5V114.5H651L653 116L653.5 128H644L643.5 116H642V114.5H639.5V128H630Z" fill="url(#paint18_linear_0_1)"/>
<path d="M327 128V95H345L350 100V109L348 111H343.5V114.5H348L350 116L350.5 128H341L340.5 116H339V114.5H336.5V128H327Z" fill="url(#paint19_linear_0_1)"/>
<path d="M292.5 128V95H310.5L315.5 100V109L313.5 111H309V114.5H313.5L315.5 116L316 128H306.5L306 116H304.5V114.5H302V128H292.5Z" fill="url(#paint20_linear_0_1)"/>
<path d="M673.5 96H664V127.5H673.5V96Z" fill="url(#paint21_linear_0_1)"/>
<path d="M688.5 96L684 100.5V122.5L689 127.5H705L706.5 125.5V119H698V125.5H696L694 122.5V100.5L696 98H698V102.5L701 105H706.5V98L703.5 96H688.5Z" fill="url(#paint22_linear_0_1)"/>
<path d="M728 118L730 116H732V127.5H742L741.5 98L738 96H727L719 104.75V127.5H728V118Z" fill="url(#paint23_linear_0_1)"/>
<path d="M574 118L576 116H578V127.5H588L587.5 98L584 96H573L565 104.75V127.5H574V118Z" fill="url(#paint24_linear_0_1)"/>
<path d="M504.5 95.5H495V127H504.5V95.5Z" fill="url(#paint25_linear_0_1)"/>
<defs>
<filter id="filter0_dd_0_1" x="0" y="0" width="262.5" height="230.5" filterUnits="userSpaceOnUse" color-interpolation-filters="sRGB">
<feFlood flood-opacity="0" result="BackgroundImageFix"/>
<feColorMatrix in="SourceAlpha" type="matrix" values="0 0 0 0 0 0 0 0 0 0 0 0 0 0 0 0 0 0 127 0" result="hardAlpha"/>
<feOffset dy="4"/>
<feGaussianBlur stdDeviation="2"/>
<feComposite in2="hardAlpha" operator="out"/>
<feColorMatrix type="matrix" values="0 0 0 0 0 0 0 0 0 0 0 0 0 0 0 0 0 0 0.25 0"/>
<feBlend mode="normal" in2="BackgroundImageFix" result="effect1_dropShadow_0_1"/>
<feColorMatrix in="SourceAlpha" type="matrix" values="0 0 0 0 0 0 0 0 0 0 0 0 0 0 0 0 0 0 127 0" result="hardAlpha"/>
<feOffset dy="4"/>
<feGaussianBlur stdDeviation="2"/>
<feComposite in2="hardAlpha" operator="out"/>
<feColorMatrix type="matrix" values="0 0 0 0 0 0 0 0 0 0 0 0 0 0 0 0 0 0 0.25 0"/>
<feBlend mode="normal" in2="effect1_dropShadow_0_1" result="effect2_dropShadow_0_1"/>
<feBlend mode="normal" in="SourceGraphic" in2="effect2_dropShadow_0_1" result="shape"/>
</filter>
<linearGradient id="paint0_linear_0_1" x1="131.25" y1="0.5" x2="131.25" y2="222" gradientUnits="userSpaceOnUse">
<stop offset="0.9999" stop-color="#4A6CF7"/>
</linearGradient>
<linearGradient id="paint1_linear_0_1" x1="131.25" y1="0.5" x2="131.25" y2="222" gradientUnits="userSpaceOnUse">
<stop offset="0.9999" stop-color="#4A6CF7"/>
</linearGradient>
<linearGradient id="paint2_linear_0_1" x1="131.25" y1="0.5" x2="131.25" y2="222" gradientUnits="userSpaceOnUse">
<stop offset="0.9999" stop-color="#4A6CF7"/>
</linearGradient>
<linearGradient id="paint3_linear_0_1" x1="131.25" y1="0.5" x2="131.25" y2="222" gradientUnits="userSpaceOnUse">
<stop offset="0.9999" stop-color="#4A6CF7"/>
</linearGradient>
<linearGradient id="paint4_linear_0_1" x1="131.25" y1="0.5" x2="131.25" y2="222" gradientUnits="userSpaceOnUse">
<stop offset="0.9999" stop-color="#4A6CF7"/>
</linearGradient>
<linearGradient id="paint5_linear_0_1" x1="131.25" y1="0.5" x2="131.25" y2="222" gradientUnits="userSpaceOnUse">
<stop offset="0.9999" stop-color="#4A6CF7"/>
</linearGradient>
<linearGradient id="paint6_linear_0_1" x1="131.25" y1="0.5" x2="131.25" y2="222" gradientUnits="userSpaceOnUse">
<stop offset="0.9999" stop-color="#4A6CF7"/>
</linearGradient>
<linearGradient id="paint7_linear_0_1" x1="131.25" y1="0.5" x2="131.25" y2="222" gradientUnits="userSpaceOnUse">
<stop offset="0.9999" stop-color="#4A6CF7"/>
</linearGradient>
<linearGradient id="paint8_linear_0_1" x1="131.25" y1="0.5" x2="131.25" y2="222" gradientUnits="userSpaceOnUse">
<stop offset="0.9999" stop-color="#4A6CF7"/>
</linearGradient>
<linearGradient id="paint9_linear_0_1" x1="131.25" y1="0.5" x2="131.25" y2="222" gradientUnits="userSpaceOnUse">
<stop offset="0.9999" stop-color="#4A6CF7"/>
</linearGradient>
<linearGradient id="paint10_linear_0_1" x1="271.5" y1="95" x2="271.5" y2="127.5" gradientUnits="userSpaceOnUse">
<stop offset="0.9999" stop-color="white"/>
</linearGradient>
<linearGradient id="paint11_linear_0_1" x1="239" y1="95" x2="239" y2="127.5" gradientUnits="userSpaceOnUse">
<stop offset="0.9999" stop-color="white"/>
</linearGradient>
<linearGradient id="paint12_linear_0_1" x1="609" y1="95.5" x2="609" y2="127" gradientUnits="userSpaceOnUse">
<stop offset="0.9999" stop-color="white"/>
</linearGradient>
<linearGradient id="paint13_linear_0_1" x1="526.75" y1="95.5" x2="526.75" y2="127" gradientUnits="userSpaceOnUse">
<stop offset="0.9999" stop-color="white"/>
</linearGradient>
<linearGradient id="paint14_linear_0_1" x1="472.5" y1="95.5" x2="472.5" y2="127" gradientUnits="userSpaceOnUse">
<stop offset="0.9999" stop-color="white"/>
</linearGradient>
<linearGradient id="paint15_linear_0_1" x1="406" y1="95.5" x2="406" y2="127" gradientUnits="userSpaceOnUse">
<stop offset="0.9999" stop-color="white"/>
</linearGradient>
<linearGradient id="paint16_linear_0_1" x1="438" y1="95.5" x2="438" y2="127" gradientUnits="userSpaceOnUse">
<stop offset="0.9999" stop-color="white"/>
</linearGradient>
<linearGradient id="paint17_linear_0_1" x1="373.5" y1="95.5" x2="373.5" y2="127" gradientUnits="userSpaceOnUse">
<stop offset="0.9999" stop-color="white"/>
</linearGradient>
<linearGradient id="paint18_linear_0_1" x1="641.75" y1="95" x2="641.75" y2="128" gradientUnits="userSpaceOnUse">
<stop offset="0.9999" stop-color="white"/>
</linearGradient>
<linearGradient id="paint19_linear_0_1" x1="338.75" y1="95" x2="338.75" y2="128" gradientUnits="userSpaceOnUse">
<stop offset="0.9999" stop-color="white"/>
</linearGradient>
<linearGradient id="paint20_linear_0_1" x1="304.25" y1="95" x2="304.25" y2="128" gradientUnits="userSpaceOnUse">
<stop offset="0.9999" stop-color="white"/>
</linearGradient>
<linearGradient id="paint21_linear_0_1" x1="668.75" y1="96" x2="668.75" y2="127.5" gradientUnits="userSpaceOnUse">
<stop offset="0.9999" stop-color="white"/>
</linearGradient>
<linearGradient id="paint22_linear_0_1" x1="695.25" y1="96" x2="695.25" y2="127.5" gradientUnits="userSpaceOnUse">
<stop offset="0.9999" stop-color="white"/>
</linearGradient>
<linearGradient id="paint23_linear_0_1" x1="730.5" y1="96" x2="730.5" y2="127.5" gradientUnits="userSpaceOnUse">
<stop offset="0.9999" stop-color="white"/>
</linearGradient>
<linearGradient id="paint24_linear_0_1" x1="576.5" y1="96" x2="576.5" y2="127.5" gradientUnits="userSpaceOnUse">
<stop offset="0.9999" stop-color="white"/>
</linearGradient>
<linearGradient id="paint25_linear_0_1" x1="499.75" y1="95.5" x2="499.75" y2="127" gradientUnits="userSpaceOnUse">
<stop offset="0.9999" stop-color="white"/>
</linearGradient>
</defs>
</svg>
